<svg id="svg" version="1.1" xmlns="http://www.w3.org/2000/svg" xmlns:xlink="http://www.w3.org/1999/xlink" width="400" height="400" viewBox="0, 0, 400,400"><g id="svgg"><path id="path0" d="M190.411 54.016 C 190.801 54.262,189.816 54.390,187.500 54.394 C 185.437 54.397,184.000 54.564,184.000 54.800 C 184.000 55.020,183.280 55.200,182.400 55.200 C 181.390 55.200,180.798 55.384,180.794 55.700 C 180.790 56.033,180.658 56.000,180.400 55.600 C 180.142 55.200,180.010 55.167,180.006 55.500 C 180.002 55.816,179.410 56.000,178.400 56.000 C 177.520 56.000,176.800 56.180,176.800 56.400 C 176.800 56.620,176.170 56.800,175.400 56.800 C 174.630 56.800,174.000 56.980,174.000 57.200 C 174.000 57.420,173.280 57.600,172.400 57.600 C 171.520 57.600,170.800 57.741,170.800 57.914 C 170.800 58.087,169.855 58.432,168.700 58.681 C 165.037 59.472,164.205 59.711,163.993 60.034 C 163.878 60.206,163.338 60.408,162.793 60.481 C 162.247 60.554,161.080 60.988,160.200 61.444 C 159.320 61.901,158.350 62.189,158.044 62.085 C 157.706 61.970,157.598 62.073,157.768 62.348 C 157.930 62.611,157.784 62.800,157.418 62.800 C 157.072 62.800,156.477 62.959,156.095 63.153 C 155.713 63.348,154.860 63.729,154.200 64.000 C 153.540 64.271,152.687 64.652,152.305 64.847 C 151.923 65.041,151.378 65.200,151.094 65.200 C 150.809 65.200,150.317 65.560,150.000 66.000 C 149.671 66.457,148.965 66.800,148.354 66.800 C 147.767 66.800,147.181 67.072,147.054 67.404 C 146.927 67.736,146.682 67.986,146.511 67.960 C 145.902 67.869,144.400 68.499,144.400 68.847 C 144.400 69.041,144.130 69.200,143.800 69.200 C 143.470 69.200,143.200 69.380,143.200 69.600 C 143.200 69.820,143.007 70.000,142.771 70.000 C 142.536 70.000,142.064 70.279,141.723 70.620 C 141.382 70.960,140.571 71.346,139.920 71.476 C 139.077 71.645,138.889 71.810,139.268 72.050 C 139.661 72.299,139.591 72.392,139.000 72.403 C 138.560 72.411,137.750 72.770,137.200 73.200 C 136.650 73.630,135.885 73.986,135.500 73.991 C 135.115 73.996,134.800 74.151,134.800 74.336 C 134.800 74.520,134.082 75.015,133.205 75.436 C 132.327 75.856,131.607 76.419,131.605 76.687 C 131.602 76.956,131.369 77.086,131.086 76.978 C 130.803 76.869,130.208 77.100,129.764 77.490 C 129.320 77.881,128.606 78.408,128.178 78.663 C 127.750 78.917,127.449 79.336,127.510 79.593 C 127.570 79.849,127.435 79.945,127.210 79.806 C 126.984 79.667,126.800 79.743,126.800 79.976 C 126.800 80.209,126.538 80.400,126.218 80.400 C 125.898 80.400,125.186 80.850,124.636 81.400 C 124.086 81.950,123.435 82.400,123.190 82.400 C 122.610 82.400,121.600 83.414,121.600 83.995 C 121.600 84.244,121.420 84.336,121.200 84.200 C 120.980 84.064,120.800 84.105,120.800 84.290 C 120.800 84.476,120.305 84.928,119.700 85.296 C 119.095 85.664,117.520 86.997,116.200 88.260 C 114.880 89.522,113.575 90.512,113.300 90.460 C 113.025 90.408,112.800 90.648,112.800 90.995 C 112.800 91.342,112.485 91.738,112.100 91.876 C 111.454 92.108,101.200 102.253,101.200 102.661 C 101.200 103.172,99.291 105.558,99.065 105.331 C 98.919 105.186,98.800 105.397,98.800 105.800 C 98.800 106.203,98.689 106.422,98.552 106.286 C 98.234 105.968,97.151 107.038,97.293 107.530 C 97.352 107.735,96.625 108.735,95.678 109.752 C 94.731 110.768,94.047 111.600,94.159 111.600 C 94.270 111.600,93.916 112.081,93.371 112.669 C 92.826 113.257,92.276 114.155,92.148 114.666 C 92.020 115.177,91.742 115.488,91.531 115.357 C 91.319 115.227,91.204 115.391,91.273 115.722 C 91.343 116.053,90.967 116.701,90.439 117.162 C 89.910 117.623,89.704 118.000,89.981 118.000 C 90.258 118.000,89.926 118.522,89.242 119.160 C 88.559 119.799,88.000 120.609,88.000 120.960 C 88.000 121.312,87.820 121.600,87.600 121.600 C 87.380 121.600,87.200 121.834,87.200 122.120 C 87.200 122.856,86.259 124.793,85.900 124.797 C 85.735 124.799,85.600 125.171,85.600 125.624 C 85.600 126.077,85.420 126.336,85.200 126.200 C 84.980 126.064,84.800 126.218,84.800 126.543 C 84.800 126.868,84.665 127.193,84.500 127.267 C 83.963 127.505,81.600 132.488,81.600 133.381 C 81.600 133.858,81.285 134.598,80.900 135.025 C 79.998 136.024,79.185 138.295,79.467 139.029 C 79.600 139.378,79.435 139.600,79.043 139.600 C 78.672 139.600,78.400 139.930,78.400 140.381 C 78.400 141.122,77.998 142.323,77.097 144.273 C 76.875 144.753,76.802 145.428,76.934 145.773 C 77.085 146.167,76.957 146.400,76.587 146.400 C 76.062 146.400,75.827 147.308,75.892 149.096 C 75.902 149.368,75.773 149.507,75.606 149.404 C 75.281 149.203,74.812 151.485,74.804 153.300 C 74.802 153.905,74.657 154.400,74.482 154.400 C 74.307 154.400,74.118 155.070,74.063 155.888 C 74.008 156.706,73.802 157.475,73.605 157.597 C 73.408 157.719,73.202 158.669,73.148 159.709 C 73.095 160.749,72.904 161.600,72.725 161.600 C 72.546 161.600,72.400 162.399,72.400 163.376 C 72.400 164.353,72.220 165.264,72.000 165.400 C 71.780 165.536,71.600 166.886,71.600 168.400 C 71.600 169.914,71.413 171.268,71.185 171.409 C 70.909 171.580,70.786 176.613,70.818 186.436 C 70.847 195.277,71.014 201.115,71.233 200.979 C 71.445 200.849,71.603 202.243,71.606 204.276 C 71.610 206.699,71.733 207.613,72.000 207.200 C 72.272 206.779,72.390 207.397,72.394 209.267 C 72.397 210.733,72.570 211.993,72.778 212.067 C 72.986 212.140,73.198 213.145,73.249 214.300 C 73.301 215.455,73.491 216.400,73.671 216.400 C 73.852 216.400,74.000 217.195,74.000 218.167 C 74.000 219.138,74.158 219.993,74.351 220.067 C 74.544 220.140,74.799 221.010,74.917 222.000 C 75.213 224.469,75.341 224.958,75.773 225.269 C 75.978 225.417,76.136 226.275,76.123 227.176 C 76.109 228.077,76.256 228.911,76.449 229.030 C 76.642 229.150,76.800 229.676,76.800 230.200 C 76.800 230.724,76.980 231.264,77.200 231.400 C 77.420 231.536,77.600 232.076,77.600 232.600 C 77.600 233.124,77.780 233.664,78.000 233.800 C 78.220 233.936,78.400 234.476,78.400 235.000 C 78.400 235.524,78.580 236.064,78.800 236.200 C 79.020 236.336,79.200 236.799,79.200 237.229 C 79.200 237.659,79.380 238.368,79.600 238.805 C 79.820 239.242,80.180 239.958,80.400 240.395 C 80.620 240.832,80.800 241.462,80.800 241.795 C 80.800 242.128,80.980 242.400,81.200 242.400 C 81.420 242.400,81.600 242.940,81.600 243.600 C 81.600 244.260,81.780 244.800,82.000 244.800 C 82.220 244.800,82.400 245.171,82.400 245.624 C 82.400 246.077,82.580 246.336,82.800 246.200 C 83.034 246.055,83.200 246.472,83.200 247.205 C 83.200 247.894,83.472 248.729,83.804 249.061 C 84.136 249.393,84.305 249.830,84.180 250.032 C 84.055 250.235,84.143 250.400,84.376 250.400 C 84.609 250.400,84.800 250.760,84.800 251.200 C 84.800 251.640,84.980 252.000,85.200 252.000 C 85.420 252.000,85.600 252.360,85.600 252.800 C 85.600 253.240,85.780 253.600,86.000 253.600 C 86.220 253.600,86.400 253.849,86.400 254.154 C 86.400 254.851,87.418 256.848,87.654 256.613 C 87.750 256.517,87.869 256.924,87.918 257.519 C 87.967 258.114,88.185 258.660,88.403 258.733 C 88.622 258.807,88.800 259.172,88.800 259.545 C 88.800 259.918,89.160 260.483,89.600 260.800 C 90.040 261.117,90.400 261.697,90.400 262.088 C 90.400 262.480,90.536 262.800,90.702 262.800 C 91.010 262.800,91.715 264.269,92.191 265.900 C 92.336 266.395,92.622 266.800,92.827 266.800 C 93.032 266.800,93.179 266.935,93.153 267.100 C 93.027 267.894,93.240 268.423,93.595 268.203 C 93.822 268.063,93.889 268.223,93.753 268.579 C 93.621 268.922,93.724 269.200,93.981 269.200 C 94.237 269.200,94.348 269.361,94.226 269.558 C 94.104 269.755,94.274 270.019,94.602 270.146 C 94.931 270.272,95.200 270.651,95.200 270.987 C 95.200 271.324,95.391 271.600,95.624 271.600 C 95.857 271.600,95.937 271.778,95.803 271.995 C 95.669 272.212,95.928 272.786,96.380 273.270 C 96.831 273.755,97.200 274.398,97.200 274.699 C 97.200 275.001,97.350 275.155,97.532 275.042 C 97.715 274.929,98.109 275.458,98.407 276.218 C 98.705 276.978,99.096 277.600,99.275 277.600 C 99.454 277.600,99.600 277.889,99.600 278.242 C 99.600 278.596,100.052 279.240,100.604 279.674 C 101.156 280.109,101.499 280.639,101.367 280.853 C 101.235 281.067,101.503 281.569,101.963 281.968 C 102.423 282.367,102.800 282.878,102.800 283.104 C 102.800 283.330,103.096 283.628,103.457 283.767 C 103.819 283.905,104.015 284.118,103.893 284.240 C 103.771 284.362,104.222 284.988,104.895 285.631 C 105.568 286.274,105.884 286.800,105.598 286.800 C 105.292 286.800,105.433 287.108,105.939 287.547 C 106.412 287.958,106.800 288.483,106.800 288.714 C 106.800 288.944,106.942 289.193,107.114 289.267 C 107.287 289.340,107.841 289.987,108.345 290.705 C 108.849 291.422,109.439 291.899,109.657 291.765 C 109.875 291.630,110.013 291.763,109.964 292.060 C 109.820 292.921,110.434 294.000,111.066 294.000 C 111.386 294.000,111.536 294.180,111.400 294.400 C 111.264 294.620,111.322 294.800,111.528 294.800 C 111.734 294.800,112.127 295.340,112.400 296.000 C 112.673 296.660,113.066 297.200,113.272 297.200 C 113.478 297.200,113.519 296.992,113.362 296.738 C 113.184 296.450,113.252 296.385,113.545 296.566 C 113.802 296.725,113.909 297.023,113.783 297.228 C 113.656 297.432,113.743 297.600,113.976 297.600 C 114.209 297.600,114.400 297.827,114.400 298.104 C 114.400 298.381,114.760 298.832,115.200 299.107 C 115.640 299.382,116.000 299.883,116.000 300.222 C 116.000 300.947,117.805 302.861,118.158 302.509 C 118.291 302.376,118.400 302.485,118.400 302.752 C 118.400 303.303,120.223 305.244,120.490 304.976 C 120.587 304.880,120.906 305.251,121.200 305.801 C 121.494 306.350,121.885 306.800,122.068 306.800 C 122.250 306.800,122.400 307.070,122.400 307.400 C 122.400 307.730,122.700 308.000,123.067 308.000 C 123.433 308.000,123.622 308.111,123.486 308.248 C 123.174 308.559,124.186 309.600,124.800 309.600 C 125.433 309.600,126.400 310.627,126.400 311.299 C 126.400 311.817,128.128 313.600,128.630 313.600 C 128.753 313.600,130.314 315.040,132.098 316.800 C 133.881 318.560,135.503 320.000,135.702 320.000 C 135.900 320.000,136.754 320.720,137.600 321.600 C 138.446 322.480,139.432 323.200,139.792 323.200 C 140.152 323.200,140.337 323.378,140.202 323.596 C 140.068 323.814,140.589 324.294,141.362 324.662 C 142.134 325.031,142.689 325.456,142.595 325.607 C 142.502 325.759,142.869 326.085,143.413 326.333 C 143.956 326.580,144.400 326.977,144.400 327.215 C 144.400 327.453,144.581 327.535,144.803 327.398 C 145.024 327.261,145.314 327.431,145.446 327.775 C 145.578 328.119,145.936 328.400,146.243 328.400 C 146.549 328.400,146.800 328.580,146.800 328.800 C 146.800 329.020,146.990 329.200,147.222 329.200 C 147.454 329.200,148.219 329.739,148.922 330.398 C 149.625 331.057,150.385 331.597,150.612 331.598 C 150.838 331.599,151.283 331.960,151.600 332.400 C 151.917 332.840,152.497 333.200,152.888 333.200 C 153.280 333.200,153.600 333.380,153.600 333.600 C 153.600 333.820,153.920 334.000,154.312 334.000 C 154.703 334.000,155.283 334.360,155.600 334.800 C 155.917 335.240,156.497 335.600,156.888 335.600 C 157.280 335.600,157.600 335.810,157.600 336.067 C 157.600 336.323,157.720 336.413,157.868 336.266 C 158.015 336.119,158.420 336.254,158.768 336.568 C 159.115 336.881,159.670 337.196,160.000 337.268 C 160.330 337.341,160.835 337.715,161.123 338.100 C 161.410 338.485,162.019 338.800,162.476 338.800 C 162.932 338.800,163.642 339.188,164.053 339.661 C 164.464 340.135,164.800 340.384,164.800 340.215 C 164.800 340.046,165.234 340.192,165.764 340.540 C 166.294 340.887,167.238 341.264,167.861 341.377 C 168.484 341.490,169.055 341.766,169.130 341.991 C 169.205 342.216,169.612 342.400,170.033 342.400 C 170.455 342.400,170.800 342.580,170.800 342.800 C 170.800 343.020,171.340 343.200,172.000 343.200 C 172.660 343.200,173.200 343.380,173.200 343.600 C 173.200 343.820,173.545 344.000,173.967 344.000 C 174.388 344.000,174.793 344.135,174.867 344.300 C 175.088 344.799,178.422 346.400,179.238 346.400 C 179.657 346.400,180.000 346.580,180.000 346.800 C 180.000 347.020,180.135 347.179,180.300 347.153 C 181.372 346.983,182.808 347.263,182.600 347.600 C 182.453 347.838,182.929 348.000,183.776 348.000 C 184.559 348.000,185.200 348.180,185.200 348.400 C 185.200 348.620,185.639 348.800,186.176 348.800 C 186.713 348.800,187.240 348.941,187.346 349.113 C 187.452 349.285,188.138 349.470,188.870 349.525 C 189.601 349.580,190.260 349.800,190.333 350.013 C 190.407 350.226,191.071 350.400,191.810 350.400 C 192.548 350.400,193.242 350.544,193.351 350.720 C 193.460 350.896,194.325 351.085,195.274 351.140 C 196.223 351.195,197.060 351.411,197.133 351.620 C 197.207 351.829,198.141 352.000,199.210 352.000 C 200.278 352.000,201.247 352.153,201.363 352.340 C 201.478 352.527,202.697 352.713,204.072 352.754 C 205.446 352.796,206.667 352.983,206.785 353.170 C 206.903 353.357,208.789 353.537,210.975 353.568 C 213.161 353.600,215.146 353.789,215.387 353.989 C 215.930 354.440,224.920 354.416,225.213 353.963 C 225.330 353.782,227.310 353.600,229.613 353.558 C 231.916 353.515,233.902 353.326,234.026 353.137 C 234.150 352.948,235.455 352.775,236.926 352.753 C 238.397 352.731,239.600 352.552,239.600 352.356 C 239.600 352.160,240.331 352.000,241.224 352.000 C 242.117 352.000,242.755 351.850,242.641 351.667 C 242.528 351.483,242.697 351.333,243.018 351.333 C 243.338 351.333,243.603 351.528,243.606 351.767 C 243.610 352.053,243.712 352.043,243.906 351.738 C 244.068 351.484,245.010 351.222,246.000 351.157 C 246.990 351.092,247.897 350.901,248.016 350.732 C 248.134 350.564,248.823 350.380,249.546 350.325 C 250.269 350.270,250.948 350.085,251.054 349.913 C 251.160 349.741,251.766 349.600,252.400 349.600 C 253.034 349.600,253.664 349.420,253.800 349.200 C 253.936 348.980,254.489 348.800,255.029 348.800 C 255.569 348.800,256.368 348.620,256.805 348.400 C 257.242 348.180,257.958 347.820,258.395 347.600 C 258.832 347.380,259.462 347.200,259.795 347.200 C 260.128 347.200,260.400 347.020,260.400 346.800 C 260.400 346.580,260.839 346.400,261.376 346.400 C 261.913 346.400,262.464 346.220,262.600 346.000 C 262.736 345.780,263.377 345.600,264.024 345.600 C 264.671 345.600,265.200 345.420,265.200 345.200 C 265.200 344.980,265.560 344.800,266.000 344.800 C 266.440 344.800,266.800 344.620,266.800 344.400 C 266.800 344.180,267.239 344.000,267.776 344.000 C 268.313 344.000,268.864 343.820,269.000 343.600 C 269.136 343.380,269.597 343.200,270.024 343.200 C 270.451 343.200,270.800 343.020,270.800 342.800 C 270.800 342.580,271.160 342.400,271.600 342.400 C 272.040 342.400,272.400 342.220,272.400 342.000 C 272.400 341.780,272.837 341.600,273.371 341.600 C 273.906 341.600,274.604 341.339,274.923 341.020 C 275.242 340.701,275.975 340.321,276.552 340.176 C 277.128 340.032,277.600 339.742,277.600 339.533 C 277.600 339.324,277.760 339.251,277.955 339.372 C 278.150 339.493,278.530 339.325,278.800 339.000 C 279.070 338.675,279.450 338.507,279.645 338.628 C 279.840 338.749,280.000 338.687,280.000 338.491 C 280.000 338.295,281.047 337.668,282.327 337.097 C 283.606 336.526,284.888 335.776,285.176 335.430 C 285.463 335.083,285.952 334.800,286.262 334.800 C 286.571 334.800,286.924 334.541,287.046 334.225 C 287.167 333.909,287.483 333.734,287.747 333.835 C 288.012 333.937,288.582 333.700,289.014 333.310 C 289.446 332.919,290.340 332.330,291.000 332.000 C 291.660 331.670,292.435 331.085,292.723 330.700 C 293.010 330.315,293.555 330.000,293.934 330.000 C 294.313 330.000,294.883 329.640,295.200 329.200 C 295.517 328.760,295.980 328.400,296.229 328.400 C 296.478 328.400,297.246 327.860,297.937 327.200 C 298.628 326.540,299.509 325.997,299.896 325.994 C 300.433 325.989,300.474 325.908,300.068 325.650 C 299.691 325.412,299.896 325.241,300.768 325.066 C 301.522 324.916,302.000 324.574,302.000 324.186 C 302.000 323.838,302.159 323.651,302.353 323.771 C 302.547 323.891,303.222 323.587,303.853 323.096 C 304.484 322.604,305.351 321.932,305.779 321.601 C 306.208 321.270,307.648 319.917,308.979 318.594 C 310.311 317.271,311.893 315.936,312.495 315.629 C 313.098 315.321,313.811 314.572,314.080 313.964 C 314.349 313.355,314.688 312.931,314.833 313.021 C 314.978 313.110,315.487 312.845,315.965 312.431 C 316.588 311.890,316.687 311.619,316.316 311.470 C 315.993 311.341,316.067 311.251,316.513 311.232 C 317.318 311.196,320.077 308.611,319.707 308.240 C 319.575 308.108,319.767 308.000,320.133 308.000 C 320.500 308.000,320.800 307.773,320.800 307.496 C 320.800 307.219,321.167 306.763,321.616 306.483 C 322.064 306.203,322.306 305.772,322.154 305.525 C 321.989 305.258,322.056 305.188,322.321 305.351 C 322.580 305.511,323.032 305.112,323.400 304.400 C 323.749 303.726,324.189 303.270,324.378 303.386 C 324.567 303.503,324.906 303.073,325.130 302.429 C 325.354 301.786,326.002 300.955,326.569 300.584 C 327.136 300.212,327.600 299.685,327.600 299.412 C 327.600 299.139,328.095 298.485,328.700 297.958 C 329.728 297.063,330.249 296.322,331.410 294.106 C 331.668 293.614,331.996 293.329,332.139 293.473 C 332.283 293.616,332.400 293.433,332.400 293.067 C 332.400 292.700,332.580 292.400,332.800 292.400 C 333.020 292.400,333.200 292.149,333.200 291.842 C 333.200 291.536,333.740 290.707,334.400 290.000 C 335.060 289.293,335.600 288.554,335.600 288.358 C 335.600 288.161,335.780 288.000,336.000 288.000 C 336.220 288.000,336.400 287.539,336.400 286.976 C 336.400 286.396,336.573 286.060,336.800 286.200 C 337.020 286.336,337.200 286.167,337.200 285.824 C 337.200 285.481,337.380 285.200,337.600 285.200 C 337.820 285.200,338.000 284.829,338.000 284.376 C 338.000 283.923,338.180 283.664,338.400 283.800 C 338.620 283.936,338.800 283.677,338.800 283.224 C 338.800 282.771,338.999 282.400,339.243 282.400 C 339.486 282.400,339.584 282.135,339.459 281.811 C 339.335 281.486,339.524 281.059,339.878 280.860 C 340.263 280.645,340.423 280.237,340.274 279.850 C 340.121 279.449,340.231 279.200,340.561 279.200 C 340.878 279.200,341.203 278.544,341.354 277.600 C 341.494 276.720,341.742 275.999,341.905 275.997 C 342.260 275.993,343.200 274.051,343.200 273.320 C 343.200 273.034,343.380 272.800,343.600 272.800 C 343.820 272.800,344.003 272.125,344.006 271.300 C 344.011 270.184,344.112 269.954,344.400 270.400 C 344.702 270.868,344.789 270.757,344.794 269.900 C 344.797 269.295,344.999 268.800,345.243 268.800 C 345.486 268.800,345.584 268.535,345.460 268.212 C 345.336 267.888,345.496 267.361,345.817 267.040 C 346.138 266.719,346.400 265.894,346.400 265.205 C 346.400 264.516,346.544 264.042,346.720 264.151 C 346.896 264.259,347.084 263.685,347.137 262.874 C 347.191 262.063,347.407 261.340,347.618 261.267 C 347.828 261.193,348.003 260.383,348.006 259.467 C 348.011 258.243,348.115 257.960,348.400 258.400 C 348.681 258.835,348.789 258.486,348.794 257.133 C 348.797 256.107,348.970 255.207,349.178 255.133 C 349.385 255.060,349.596 253.965,349.646 252.700 C 349.696 251.435,349.886 250.400,350.068 250.400 C 350.251 250.400,350.400 249.500,350.400 248.400 C 350.400 247.300,350.563 246.400,350.762 246.400 C 350.961 246.400,351.148 243.867,351.177 240.770 C 351.211 237.167,351.404 234.863,351.711 234.370 C 352.088 233.768,352.084 233.427,351.696 232.805 C 351.366 232.276,351.200 230.230,351.200 226.685 C 351.200 223.756,351.035 221.189,350.834 220.980 C 350.632 220.771,350.366 219.520,350.242 218.200 C 349.706 212.503,349.505 211.200,349.163 211.200 C 348.963 211.200,348.800 210.570,348.800 209.800 C 348.800 209.030,348.620 208.400,348.400 208.400 C 348.180 208.400,348.000 207.680,348.000 206.800 C 348.000 205.920,347.820 205.200,347.600 205.200 C 347.380 205.200,347.200 204.469,347.200 203.576 C 347.200 202.596,347.042 202.051,346.800 202.200 C 346.562 202.347,346.400 201.871,346.400 201.024 C 346.400 200.241,346.220 199.600,346.000 199.600 C 345.780 199.600,345.600 199.161,345.600 198.624 C 345.600 198.087,345.420 197.536,345.200 197.400 C 344.980 197.264,344.800 196.803,344.800 196.376 C 344.800 195.949,344.620 195.600,344.400 195.600 C 344.180 195.600,344.000 195.238,344.000 194.795 C 344.000 194.352,343.792 193.587,343.538 193.095 C 342.555 191.194,342.400 190.788,342.394 190.105 C 342.389 189.504,342.331 189.488,342.000 190.000 C 341.694 190.473,341.611 190.381,341.606 189.568 C 341.603 189.000,341.151 187.650,340.602 186.568 C 340.053 185.486,339.603 184.274,339.602 183.876 C 339.601 183.478,339.420 183.264,339.200 183.400 C 338.980 183.536,338.778 183.457,338.750 183.224 C 338.629 182.196,338.584 182.050,338.300 181.767 C 338.135 181.602,338.000 181.156,338.000 180.776 C 338.000 180.396,337.728 179.981,337.396 179.854 C 337.064 179.727,336.839 179.400,336.896 179.127 C 337.014 178.566,335.295 178.323,334.967 178.854 C 334.849 179.044,334.486 179.200,334.160 179.200 C 333.833 179.200,333.180 179.560,332.708 180.000 C 332.236 180.440,331.613 180.800,331.325 180.800 C 331.036 180.800,330.800 180.980,330.800 181.200 C 330.800 181.420,330.530 181.600,330.200 181.600 C 329.870 181.600,329.600 181.780,329.600 182.000 C 329.600 182.220,329.349 182.400,329.043 182.400 C 328.736 182.400,328.378 182.681,328.246 183.025 C 328.114 183.369,327.824 183.539,327.603 183.402 C 327.381 183.265,327.200 183.347,327.200 183.585 C 327.200 183.823,326.705 184.235,326.100 184.502 C 325.495 184.769,324.523 185.485,323.940 186.094 C 323.356 186.702,322.673 187.200,322.421 187.200 C 322.170 187.200,321.510 187.653,320.956 188.208 C 320.402 188.762,319.780 189.111,319.574 188.984 C 319.368 188.857,319.200 188.943,319.200 189.176 C 319.200 189.409,318.829 189.600,318.376 189.600 C 317.923 189.600,317.664 189.780,317.800 190.000 C 317.936 190.220,317.767 190.400,317.424 190.400 C 317.081 190.400,316.800 190.580,316.800 190.800 C 316.800 191.020,316.522 191.200,316.183 191.200 C 315.844 191.200,315.349 191.383,315.083 191.606 C 314.084 192.445,311.550 194.000,311.182 194.000 C 310.972 194.000,310.800 194.281,310.800 194.624 C 310.800 194.967,310.632 195.144,310.427 195.017 C 310.222 194.890,309.772 195.190,309.427 195.682 C 309.082 196.175,308.800 196.339,308.800 196.047 C 308.800 195.754,308.278 196.074,307.640 196.758 C 307.001 197.441,306.169 198.000,305.791 198.000 C 305.194 198.000,305.176 198.091,305.651 198.677 C 306.024 199.137,306.040 199.257,305.700 199.053 C 305.425 198.888,305.200 198.943,305.200 199.176 C 305.200 199.409,305.380 199.600,305.600 199.600 C 305.820 199.600,306.000 200.140,306.000 200.800 C 306.000 201.460,306.180 202.000,306.400 202.000 C 306.620 202.000,306.800 202.360,306.800 202.800 C 306.800 203.240,306.980 203.600,307.200 203.600 C 307.420 203.600,307.600 204.151,307.600 204.824 C 307.600 205.537,307.767 205.944,308.000 205.800 C 308.227 205.659,308.400 206.000,308.400 206.589 C 308.400 207.159,308.670 208.272,309.000 209.062 C 309.330 209.851,309.600 210.814,309.600 211.200 C 309.600 211.586,309.866 212.123,310.192 212.393 C 310.518 212.664,310.785 213.271,310.787 213.742 C 310.791 215.200,311.273 217.600,311.561 217.600 C 311.712 217.600,312.069 218.725,312.356 220.100 C 312.642 221.475,313.071 223.230,313.310 224.000 C 313.548 224.770,313.711 225.839,313.670 226.375 C 313.630 226.912,313.772 227.459,313.986 227.591 C 314.200 227.723,314.401 229.492,314.433 231.521 C 314.466 233.550,314.652 235.308,314.846 235.429 C 315.285 235.700,315.321 247.200,314.882 247.200 C 314.708 247.200,314.520 248.414,314.465 249.897 C 314.410 251.381,314.193 252.767,313.983 252.977 C 313.772 253.188,313.600 254.134,313.600 255.080 C 313.600 256.026,313.420 256.800,313.200 256.800 C 312.980 256.800,312.800 257.419,312.800 258.176 C 312.800 258.933,312.638 259.653,312.440 259.775 C 312.242 259.898,312.117 260.533,312.162 261.186 C 312.207 261.840,312.054 262.447,311.822 262.537 C 311.590 262.626,311.149 263.551,310.843 264.593 C 310.537 265.634,309.862 267.366,309.343 268.441 C 308.262 270.681,308.208 270.945,308.900 270.593 C 309.175 270.453,309.035 270.668,308.589 271.070 C 308.143 271.471,307.749 272.200,307.714 272.689 C 307.680 273.178,307.289 273.968,306.846 274.443 C 306.402 274.919,305.764 275.889,305.427 276.599 C 305.090 277.309,304.541 278.117,304.207 278.394 C 303.873 278.671,303.600 279.146,303.600 279.449 C 303.600 279.752,303.409 280.000,303.176 280.000 C 302.943 280.000,302.864 280.180,303.000 280.400 C 303.136 280.620,302.967 280.800,302.624 280.800 C 302.281 280.800,302.000 281.062,302.000 281.383 C 302.000 281.703,301.282 282.738,300.405 283.683 C 299.528 284.627,298.808 285.625,298.805 285.900 C 298.802 286.175,298.620 286.400,298.400 286.400 C 298.180 286.400,298.000 286.670,298.000 287.000 C 298.000 287.330,297.848 287.600,297.661 287.600 C 296.990 287.600,295.729 289.012,295.915 289.556 C 296.030 289.896,295.927 290.002,295.648 289.830 C 295.378 289.663,294.909 290.047,294.496 290.772 C 294.113 291.444,293.644 291.996,293.453 291.997 C 292.902 292.001,290.432 294.299,290.696 294.562 C 290.826 294.693,290.742 294.800,290.507 294.800 C 290.273 294.800,289.162 295.700,288.039 296.800 C 286.915 297.900,285.803 298.800,285.567 298.800 C 285.330 298.800,284.424 299.520,283.553 300.400 C 282.682 301.280,281.706 302.000,281.385 302.000 C 281.063 302.000,280.800 302.180,280.800 302.400 C 280.800 302.620,280.558 302.800,280.261 302.800 C 279.965 302.800,279.527 303.205,279.288 303.700 C 279.049 304.195,278.842 304.378,278.827 304.107 C 278.812 303.836,278.154 304.242,277.364 305.009 C 276.574 305.775,275.797 306.322,275.637 306.223 C 275.477 306.124,275.093 306.393,274.785 306.821 C 274.476 307.250,273.993 307.600,273.712 307.600 C 273.430 307.600,273.200 307.791,273.200 308.024 C 273.200 308.257,273.064 308.363,272.898 308.260 C 272.731 308.158,271.889 308.417,271.026 308.837 C 270.163 309.257,269.219 309.600,268.929 309.600 C 268.638 309.600,268.400 309.851,268.400 310.157 C 268.400 310.464,268.121 310.822,267.779 310.953 C 267.423 311.089,267.263 311.022,267.403 310.795 C 267.537 310.578,267.476 310.400,267.266 310.400 C 267.057 310.400,266.775 310.689,266.639 311.042 C 266.499 311.408,266.137 311.585,265.797 311.454 C 265.468 311.328,265.200 311.378,265.200 311.564 C 265.200 311.994,262.766 313.024,262.100 312.876 C 261.825 312.815,261.600 313.053,261.600 313.406 C 261.600 313.759,261.453 313.956,261.274 313.845 C 260.927 313.631,258.203 314.464,257.741 314.926 C 257.590 315.077,256.972 315.200,256.367 315.200 C 255.762 315.200,255.199 315.402,255.117 315.650 C 255.034 315.897,254.482 316.100,253.891 316.100 C 253.299 316.100,252.912 316.257,253.031 316.450 C 253.150 316.643,252.527 316.800,251.647 316.800 C 250.767 316.800,249.936 316.980,249.800 317.200 C 249.664 317.420,248.764 317.600,247.800 317.600 C 246.836 317.600,245.936 317.780,245.800 318.000 C 245.663 318.221,243.863 318.400,241.776 318.400 C 239.525 318.400,238.000 318.562,238.000 318.800 C 238.000 319.047,235.925 319.200,232.576 319.200 C 229.063 319.200,227.240 319.059,227.400 318.800 C 227.558 318.544,226.271 318.400,223.824 318.400 C 221.541 318.400,220.000 318.239,220.000 318.000 C 220.000 317.780,219.809 317.600,219.576 317.600 C 219.343 317.600,219.280 317.825,219.435 318.100 C 219.661 318.500,219.610 318.500,219.179 318.100 C 218.882 317.825,218.046 317.600,217.320 317.600 C 216.594 317.600,216.000 317.454,216.000 317.275 C 216.000 317.096,215.145 316.906,214.100 316.853 C 213.055 316.800,212.140 316.587,212.067 316.379 C 211.993 316.170,211.183 315.997,210.267 315.994 C 209.043 315.989,208.760 315.885,209.200 315.600 C 209.725 315.261,207.646 314.940,206.300 315.153 C 206.135 315.179,206.000 315.020,206.000 314.800 C 206.000 314.580,205.640 314.400,205.200 314.400 C 204.760 314.400,204.400 314.209,204.400 313.976 C 204.400 313.743,204.247 313.648,204.059 313.764 C 203.871 313.880,203.376 313.716,202.959 313.400 C 202.542 313.084,201.694 312.820,201.076 312.813 C 200.432 312.805,200.058 312.630,200.200 312.400 C 200.347 312.162,199.871 312.000,199.024 312.000 C 198.241 312.000,197.600 311.864,197.600 311.698 C 197.600 311.230,195.270 310.309,194.809 310.594 C 194.584 310.733,194.400 310.660,194.400 310.432 C 194.400 309.742,191.298 308.326,191.062 308.908 C 190.907 309.292,190.856 309.291,190.832 308.900 C 190.814 308.625,190.612 308.400,190.383 308.400 C 190.154 308.400,189.580 308.040,189.108 307.600 C 188.636 307.160,188.013 306.800,187.725 306.800 C 187.436 306.800,187.200 306.620,187.200 306.400 C 187.200 306.180,186.880 306.000,186.488 306.000 C 186.097 306.000,185.517 305.640,185.200 305.200 C 184.883 304.760,184.303 304.400,183.912 304.400 C 183.520 304.400,183.200 304.220,183.200 304.000 C 183.200 303.780,182.964 303.600,182.675 303.600 C 182.387 303.600,181.802 303.285,181.375 302.900 C 180.949 302.515,180.105 301.945,179.500 301.632 C 178.895 301.320,178.400 300.905,178.400 300.709 C 178.400 300.513,178.239 300.452,178.042 300.574 C 177.845 300.696,177.581 300.526,177.454 300.198 C 177.328 299.869,176.949 299.600,176.613 299.600 C 176.276 299.600,176.000 299.420,176.000 299.200 C 176.000 298.980,175.595 298.797,175.100 298.794 C 174.372 298.789,174.315 298.714,174.800 298.400 C 175.313 298.069,175.298 298.011,174.700 298.006 C 174.315 298.003,174.000 297.820,174.000 297.600 C 174.000 297.380,173.839 297.200,173.642 297.200 C 173.446 297.200,172.707 296.660,172.000 296.000 C 171.293 295.340,170.471 294.800,170.172 294.800 C 169.873 294.800,169.439 294.447,169.208 294.015 C 168.961 293.553,168.543 293.324,168.194 293.458 C 167.818 293.602,167.600 293.445,167.600 293.030 C 167.600 292.670,167.285 292.261,166.900 292.122 C 166.515 291.982,164.989 290.638,163.508 289.134 C 162.028 287.630,160.641 286.400,160.427 286.400 C 160.212 286.400,159.586 285.950,159.036 285.400 C 158.486 284.850,158.100 284.400,158.178 284.400 C 158.256 284.400,157.753 283.807,157.060 283.083 C 156.367 282.359,155.116 280.964,154.279 279.983 C 153.442 279.002,152.868 278.425,153.003 278.700 C 153.137 278.975,153.060 279.200,152.831 279.200 C 152.602 279.200,152.304 278.755,152.167 278.211 C 152.031 277.668,151.037 276.420,149.959 275.440 C 148.882 274.459,148.000 273.452,148.000 273.202 C 148.000 272.952,147.100 271.871,146.000 270.800 C 144.900 269.729,144.000 268.642,144.000 268.386 C 144.000 268.130,143.504 267.444,142.897 266.860 C 142.291 266.277,141.446 265.136,141.019 264.324 C 140.593 263.513,140.099 262.939,139.922 263.048 C 139.745 263.158,139.600 262.994,139.600 262.685 C 139.600 262.189,139.239 261.652,137.607 259.717 C 137.383 259.451,137.200 259.086,137.200 258.905 C 137.200 258.724,136.840 258.317,136.400 258.000 C 135.960 257.683,135.600 257.146,135.600 256.808 C 135.600 256.469,135.240 255.968,134.800 255.693 C 134.360 255.418,134.000 254.925,134.000 254.597 C 134.000 254.268,133.820 254.000,133.600 254.000 C 133.380 254.000,133.200 253.745,133.200 253.433 C 133.200 253.122,133.065 252.807,132.900 252.733 C 132.735 252.660,132.167 251.745,131.637 250.700 C 131.108 249.655,130.523 248.800,130.337 248.800 C 130.152 248.800,130.000 248.564,130.000 248.275 C 130.000 247.987,129.640 247.364,129.200 246.892 C 128.760 246.420,128.400 245.822,128.400 245.564 C 128.400 245.305,128.085 244.803,127.700 244.447 C 127.315 244.091,126.938 243.447,126.863 243.015 C 126.787 242.583,126.398 241.945,125.996 241.597 C 125.595 241.249,125.144 240.310,124.994 239.510 C 124.844 238.710,124.458 237.954,124.135 237.831 C 123.813 237.707,123.662 237.423,123.800 237.200 C 123.938 236.977,123.781 236.691,123.451 236.564 C 123.121 236.437,122.950 236.073,123.073 235.755 C 123.195 235.437,122.913 234.845,122.447 234.441 C 121.981 234.037,121.600 233.333,121.600 232.877 C 121.600 232.420,121.420 231.936,121.200 231.800 C 120.980 231.664,120.800 231.203,120.800 230.776 C 120.800 230.349,120.664 230.000,120.498 230.000 C 120.331 230.000,119.960 229.415,119.671 228.700 C 119.383 227.985,118.979 227.087,118.774 226.705 C 118.568 226.323,118.400 225.738,118.400 225.405 C 118.400 225.072,118.220 224.800,118.000 224.800 C 117.780 224.800,117.600 224.260,117.600 223.600 C 117.600 222.940,117.442 222.400,117.249 222.400 C 116.821 222.400,115.985 220.467,115.895 219.270 C 115.859 218.791,115.688 218.400,115.515 218.400 C 115.342 218.400,115.200 217.860,115.200 217.200 C 115.200 216.540,115.020 216.000,114.800 216.000 C 114.580 216.000,114.400 215.561,114.400 215.024 C 114.400 214.487,114.220 213.936,114.000 213.800 C 113.780 213.664,113.600 213.201,113.600 212.771 C 113.600 212.341,113.420 211.632,113.200 211.195 C 112.980 210.758,112.620 210.042,112.400 209.605 C 112.180 209.168,112.000 208.178,112.000 207.405 C 112.000 206.632,111.820 206.000,111.600 206.000 C 111.380 206.000,111.200 205.280,111.200 204.400 C 111.200 203.520,111.020 202.800,110.800 202.800 C 110.580 202.800,110.400 202.080,110.400 201.200 C 110.400 200.320,110.220 199.600,110.000 199.600 C 109.780 199.600,109.600 198.869,109.600 197.976 C 109.600 196.784,109.467 196.433,109.100 196.653 C 108.809 196.828,108.850 196.639,109.200 196.200 C 109.530 195.786,109.591 195.572,109.336 195.725 C 108.835 196.025,108.608 194.079,108.345 187.233 C 108.265 185.162,108.020 183.406,107.800 183.333 C 107.171 183.123,107.335 168.434,107.980 167.234 C 108.323 166.596,108.430 165.407,108.296 163.734 C 108.184 162.340,108.251 161.200,108.446 161.200 C 108.641 161.200,108.800 160.300,108.800 159.200 C 108.800 158.100,108.980 157.200,109.200 157.200 C 109.420 157.200,109.600 156.390,109.600 155.400 C 109.600 154.410,109.780 153.600,110.000 153.600 C 110.220 153.600,110.400 152.880,110.400 152.000 C 110.400 151.120,110.580 150.400,110.800 150.400 C 111.020 150.400,111.200 149.860,111.200 149.200 C 111.200 148.540,111.380 148.000,111.600 148.000 C 111.820 148.000,112.000 147.460,112.000 146.800 C 112.000 146.140,112.191 145.600,112.424 145.600 C 112.657 145.600,112.745 145.435,112.620 145.232 C 112.495 145.030,112.664 144.593,112.996 144.261 C 113.328 143.929,113.600 143.342,113.600 142.956 C 113.600 142.031,115.251 138.400,115.671 138.400 C 115.852 138.400,116.000 138.051,116.000 137.624 C 116.000 137.197,116.180 136.736,116.400 136.600 C 116.620 136.464,116.800 136.003,116.800 135.576 C 116.800 135.149,116.980 134.800,117.200 134.800 C 117.420 134.800,117.600 134.480,117.600 134.088 C 117.600 133.697,117.960 133.117,118.400 132.800 C 118.840 132.483,119.200 131.903,119.200 131.512 C 119.200 131.120,119.399 130.800,119.643 130.800 C 119.886 130.800,119.978 130.521,119.847 130.179 C 119.711 129.823,119.778 129.663,120.005 129.803 C 120.222 129.937,120.400 129.803,120.400 129.505 C 120.400 128.952,121.221 127.726,122.531 126.322 C 122.933 125.891,123.180 125.326,123.081 125.067 C 122.876 124.532,123.789 123.523,124.151 123.885 C 124.281 124.015,124.627 123.551,124.921 122.854 C 125.214 122.157,125.576 121.710,125.727 121.860 C 125.877 122.010,126.000 121.939,126.000 121.702 C 126.000 121.464,127.080 120.173,128.400 118.832 C 129.720 117.492,130.800 116.170,130.800 115.895 C 130.800 115.620,131.340 115.156,132.000 114.864 C 132.731 114.541,133.200 114.033,133.200 113.566 C 133.200 113.145,133.380 112.800,133.600 112.800 C 134.412 112.800,134.636 112.640,136.400 110.799 C 137.390 109.766,138.515 108.809,138.900 108.673 C 139.285 108.537,139.600 108.139,139.600 107.789 C 139.600 107.416,139.788 107.269,140.055 107.434 C 140.313 107.593,140.981 107.175,141.598 106.468 C 142.197 105.782,142.803 105.336,142.944 105.477 C 143.085 105.618,143.200 105.513,143.200 105.243 C 143.200 104.973,143.380 104.864,143.600 105.000 C 143.820 105.136,144.000 105.069,144.000 104.851 C 144.000 104.632,144.330 104.349,144.734 104.221 C 145.138 104.093,146.173 103.361,147.034 102.594 C 147.895 101.828,148.825 101.200,149.100 101.200 C 149.375 101.200,149.600 101.020,149.600 100.800 C 149.600 100.580,149.960 100.400,150.400 100.400 C 150.840 100.400,151.200 100.241,151.200 100.047 C 151.200 99.852,151.515 99.593,151.900 99.471 C 152.836 99.175,154.966 97.876,155.133 97.500 C 155.207 97.335,155.622 97.200,156.057 97.200 C 156.492 97.200,156.736 97.020,156.600 96.800 C 156.464 96.580,156.598 96.400,156.897 96.400 C 157.651 96.400,159.593 95.465,159.597 95.100 C 159.599 94.935,159.960 94.800,160.400 94.800 C 160.840 94.800,161.200 94.620,161.200 94.400 C 161.200 94.180,161.639 94.000,162.176 94.000 C 162.713 94.000,163.264 93.820,163.400 93.600 C 163.536 93.380,163.997 93.200,164.424 93.200 C 164.851 93.200,165.200 93.020,165.200 92.800 C 165.200 92.580,165.740 92.400,166.400 92.400 C 167.060 92.400,167.600 92.220,167.600 92.000 C 167.600 91.780,167.971 91.600,168.424 91.600 C 168.877 91.600,169.152 91.445,169.035 91.256 C 168.918 91.067,169.308 90.966,169.901 91.031 C 170.494 91.096,171.216 90.952,171.506 90.712 C 171.796 90.471,172.431 90.253,172.916 90.226 C 173.402 90.198,173.995 90.054,174.234 89.905 C 174.473 89.756,175.328 89.589,176.134 89.535 C 176.940 89.481,177.600 89.293,177.600 89.118 C 177.600 88.943,178.500 88.800,179.600 88.800 C 180.700 88.800,181.600 88.620,181.600 88.400 C 181.600 88.175,182.725 88.000,184.176 88.000 C 185.593 88.000,186.864 87.820,187.000 87.600 C 187.305 87.106,196.266 87.059,196.569 87.549 C 196.687 87.741,198.085 87.925,199.674 87.958 C 201.463 87.995,202.682 88.204,202.876 88.509 C 203.105 88.870,203.191 88.842,203.200 88.400 C 203.208 88.029,203.325 87.960,203.506 88.219 C 203.668 88.450,204.250 88.627,204.800 88.612 C 205.350 88.598,206.160 88.778,206.600 89.014 C 207.040 89.249,207.922 89.477,208.560 89.521 C 209.197 89.565,209.963 89.803,210.261 90.050 C 210.561 90.299,211.335 90.393,211.997 90.261 C 212.826 90.095,213.163 90.172,213.096 90.511 C 213.042 90.787,213.392 90.986,213.900 90.968 C 214.395 90.951,214.803 91.131,214.806 91.368 C 214.809 91.606,214.987 91.530,215.200 91.200 C 215.458 90.800,215.590 90.767,215.594 91.100 C 215.597 91.375,215.870 91.600,216.200 91.600 C 216.530 91.600,216.800 91.780,216.800 92.000 C 216.800 92.220,217.441 92.400,218.224 92.400 C 219.071 92.400,219.547 92.562,219.400 92.800 C 219.264 93.020,219.523 93.200,219.976 93.200 C 220.429 93.200,220.800 93.380,220.800 93.600 C 220.800 93.820,221.160 94.000,221.600 94.000 C 222.040 94.000,222.400 94.180,222.400 94.400 C 222.400 94.620,222.760 94.800,223.200 94.800 C 223.640 94.800,224.000 94.980,224.000 95.200 C 224.000 95.420,224.360 95.600,224.800 95.600 C 225.240 95.600,225.600 95.780,225.600 96.000 C 225.600 96.220,225.870 96.400,226.200 96.400 C 226.530 96.400,226.800 96.580,226.800 96.800 C 226.800 97.020,227.160 97.200,227.600 97.200 C 228.040 97.200,228.400 97.391,228.400 97.624 C 228.400 97.857,228.580 97.936,228.800 97.800 C 229.020 97.664,229.200 97.738,229.200 97.964 C 229.200 98.190,229.515 98.262,229.900 98.124 C 230.285 97.986,230.468 98.018,230.306 98.197 C 229.929 98.613,231.180 99.571,232.124 99.587 C 232.522 99.594,232.749 99.759,232.629 99.954 C 232.509 100.148,232.948 100.530,233.605 100.802 C 234.262 101.074,234.800 101.455,234.800 101.649 C 234.800 101.842,235.030 102.000,235.311 102.000 C 235.592 102.000,236.402 102.530,237.111 103.177 C 237.820 103.825,238.405 104.230,238.412 104.077 C 238.419 103.925,238.608 104.115,238.832 104.500 C 239.056 104.885,239.491 105.200,239.797 105.200 C 240.104 105.200,240.590 105.515,240.877 105.900 C 241.165 106.285,242.120 107.129,243.000 107.775 C 243.880 108.421,245.081 109.439,245.669 110.039 C 246.257 110.638,246.842 111.024,246.969 110.897 C 247.096 110.771,247.200 110.897,247.200 111.179 C 247.200 111.769,249.945 114.394,250.578 114.411 C 250.810 114.417,251.450 115.043,252.000 115.803 C 252.550 116.562,253.315 117.289,253.700 117.419 C 254.085 117.548,254.400 117.822,254.400 118.027 C 254.400 119.127,258.012 117.598,258.925 116.112 C 259.103 115.821,259.391 115.671,259.564 115.778 C 259.737 115.885,260.221 115.664,260.639 115.286 C 261.058 114.909,261.895 114.345,262.500 114.032 C 263.105 113.720,263.600 113.315,263.600 113.132 C 263.600 112.950,263.836 112.800,264.125 112.800 C 264.413 112.800,265.085 112.395,265.617 111.900 C 266.149 111.405,266.723 111.045,266.892 111.100 C 267.062 111.155,267.200 111.020,267.200 110.800 C 267.200 110.580,267.430 110.400,267.712 110.400 C 267.993 110.400,268.483 110.040,268.800 109.600 C 269.117 109.160,269.697 108.800,270.088 108.800 C 270.480 108.800,270.800 108.620,270.800 108.400 C 270.800 108.180,271.015 108.000,271.278 108.000 C 271.868 108.000,274.882 105.988,275.320 105.301 C 275.496 105.026,275.873 104.800,276.158 104.800 C 276.443 104.800,277.199 104.350,277.838 103.800 C 278.477 103.251,279.225 102.801,279.500 102.800 C 279.775 102.800,280.000 102.650,280.000 102.468 C 280.000 102.285,280.495 101.881,281.100 101.570 C 281.705 101.260,282.491 100.689,282.847 100.303 C 283.203 99.916,283.711 99.600,283.975 99.600 C 285.485 99.600,286.126 96.621,284.713 96.172 C 284.321 96.048,284.000 95.765,284.000 95.544 C 284.000 95.324,283.775 94.915,283.500 94.637 C 283.225 94.359,282.642 93.652,282.205 93.066 C 281.768 92.480,281.183 92.000,280.905 92.000 C 280.627 92.000,280.400 91.820,280.400 91.600 C 280.400 91.380,279.410 90.202,278.200 88.983 C 276.990 87.763,276.000 86.503,276.000 86.182 C 276.000 85.862,275.730 85.600,275.400 85.600 C 275.070 85.600,274.800 85.424,274.800 85.209 C 274.800 84.562,268.770 78.840,267.208 78.004 C 266.751 77.760,266.464 77.421,266.569 77.251 C 266.674 77.080,265.873 76.414,264.788 75.771 C 263.703 75.127,262.812 74.454,262.808 74.276 C 262.804 74.098,262.630 74.058,262.423 74.186 C 262.215 74.314,261.411 73.785,260.636 73.009 C 259.861 72.234,259.041 71.600,258.813 71.600 C 258.586 71.600,258.395 71.465,258.389 71.300 C 258.383 71.135,257.663 70.559,256.789 70.020 C 255.915 69.480,255.200 68.895,255.200 68.720 C 255.200 68.544,254.922 68.400,254.583 68.400 C 254.244 68.400,253.580 68.040,253.108 67.600 C 252.636 67.160,252.013 66.800,251.725 66.800 C 251.436 66.800,251.200 66.609,251.200 66.376 C 251.200 66.143,251.043 66.050,250.852 66.168 C 250.661 66.286,249.986 65.937,249.352 65.392 C 248.718 64.847,247.975 64.401,247.700 64.400 C 247.425 64.400,247.200 64.199,247.200 63.953 C 247.200 63.704,246.847 63.599,246.400 63.716 C 245.867 63.855,245.600 63.728,245.600 63.336 C 245.600 62.928,245.353 62.824,244.800 63.000 C 244.241 63.177,244.000 63.072,244.000 62.650 C 244.000 62.261,243.715 62.101,243.200 62.200 C 242.741 62.288,242.400 62.139,242.400 61.849 C 242.400 61.572,241.500 61.100,240.400 60.800 C 239.300 60.500,238.400 60.087,238.400 59.881 C 238.400 59.675,237.936 59.595,237.368 59.704 C 236.721 59.828,236.260 59.700,236.130 59.361 C 236.016 59.065,235.265 58.717,234.461 58.589 C 233.658 58.461,232.687 58.186,232.305 57.978 C 231.923 57.770,231.169 57.600,230.629 57.600 C 230.089 57.600,229.536 57.420,229.400 57.200 C 229.264 56.980,228.623 56.800,227.976 56.800 C 227.329 56.800,226.800 56.620,226.800 56.400 C 226.800 56.180,226.080 56.000,225.200 56.000 C 224.320 56.000,223.600 55.820,223.600 55.600 C 223.600 55.380,222.689 55.200,221.576 55.200 C 220.329 55.200,219.648 55.047,219.800 54.800 C 219.957 54.546,218.871 54.400,216.824 54.400 C 214.892 54.400,213.600 54.236,213.600 53.991 C 213.600 53.720,209.572 53.592,201.711 53.612 C 194.209 53.632,190.040 53.781,190.411 54.016 " stroke="none" fill="#5ce4e4" fill-rule="evenodd"></path><path id="path1" d="M214.400 116.400 C 214.400 116.620,213.601 116.800,212.624 116.800 C 211.647 116.800,210.736 116.980,210.600 117.200 C 210.464 117.420,209.733 117.600,208.976 117.600 C 208.219 117.600,207.600 117.780,207.600 118.000 C 207.600 118.220,206.880 118.400,206.000 118.400 C 205.120 118.400,204.400 118.580,204.400 118.800 C 204.400 119.020,204.040 119.200,203.600 119.200 C 203.160 119.200,202.800 119.341,202.800 119.513 C 202.800 119.685,201.990 120.065,201.000 120.357 C 200.010 120.649,199.200 121.012,199.200 121.164 C 199.200 121.315,198.570 121.667,197.800 121.946 C 197.030 122.224,196.400 122.620,196.400 122.826 C 196.400 123.032,196.080 123.200,195.688 123.200 C 195.297 123.200,194.717 123.560,194.400 124.000 C 194.083 124.440,193.604 124.800,193.336 124.800 C 193.069 124.800,192.263 125.335,191.547 125.989 C 190.831 126.643,190.181 127.114,190.102 127.035 C 189.880 126.813,183.200 133.567,183.200 134.013 C 183.200 134.230,182.660 134.972,182.000 135.663 C 181.340 136.354,180.800 137.122,180.800 137.371 C 180.800 137.620,180.440 138.083,180.000 138.400 C 179.560 138.717,179.200 139.297,179.200 139.688 C 179.200 140.080,179.020 140.400,178.800 140.400 C 178.580 140.400,178.400 140.636,178.400 140.925 C 178.400 141.213,178.040 141.836,177.600 142.308 C 177.160 142.780,176.800 143.364,176.800 143.606 C 176.800 143.848,176.350 144.852,175.800 145.837 C 175.250 146.822,174.800 148.072,174.800 148.614 C 174.800 149.156,174.620 149.600,174.400 149.600 C 174.180 149.600,174.000 149.960,174.000 150.400 C 174.000 150.840,173.820 151.200,173.600 151.200 C 173.380 151.200,173.200 151.740,173.200 152.400 C 173.200 153.060,173.020 153.600,172.800 153.600 C 172.580 153.600,172.400 153.960,172.400 154.400 C 172.400 154.840,172.220 155.200,172.000 155.200 C 171.780 155.200,171.600 155.729,171.600 156.376 C 171.600 157.023,171.420 157.664,171.200 157.800 C 170.980 157.936,170.800 158.487,170.800 159.024 C 170.800 159.561,170.620 160.000,170.400 160.000 C 170.180 160.000,170.000 160.439,170.000 160.976 C 170.000 161.513,169.820 162.064,169.600 162.200 C 169.380 162.336,169.200 162.887,169.200 163.424 C 169.200 163.961,169.020 164.400,168.800 164.400 C 168.580 164.400,168.400 164.940,168.400 165.600 C 168.400 166.260,168.220 166.800,168.000 166.800 C 167.780 166.800,167.600 167.149,167.600 167.576 C 167.600 168.003,167.420 168.464,167.200 168.600 C 166.980 168.736,166.800 169.289,166.800 169.829 C 166.800 170.369,166.592 171.213,166.338 171.705 C 165.342 173.631,165.200 174.017,165.200 174.795 C 165.200 175.238,165.020 175.600,164.800 175.600 C 164.580 175.600,164.400 176.039,164.400 176.576 C 164.400 177.113,164.220 177.664,164.000 177.800 C 163.780 177.936,163.600 178.476,163.600 179.000 C 163.600 179.524,163.420 180.064,163.200 180.200 C 162.980 180.336,162.800 180.876,162.800 181.400 C 162.800 181.924,162.620 182.464,162.400 182.600 C 162.180 182.736,162.000 183.287,162.000 183.824 C 162.000 184.361,161.820 184.800,161.600 184.800 C 161.380 184.800,161.200 185.214,161.200 185.720 C 161.200 186.226,161.048 186.811,160.863 187.020 C 160.481 187.450,159.067 191.918,159.067 192.694 C 159.067 192.972,158.917 193.200,158.733 193.200 C 158.550 193.200,158.400 193.729,158.400 194.376 C 158.400 195.023,158.220 195.664,158.000 195.800 C 157.780 195.936,157.600 196.487,157.600 197.024 C 157.600 197.561,157.420 198.000,157.200 198.000 C 156.980 198.000,156.800 198.540,156.800 199.200 C 156.800 199.860,156.620 200.400,156.400 200.400 C 156.180 200.400,156.000 200.850,156.000 201.400 C 156.000 201.950,155.820 202.400,155.600 202.400 C 155.380 202.400,155.200 202.850,155.200 203.400 C 155.200 203.950,155.020 204.400,154.800 204.400 C 154.580 204.400,154.400 204.940,154.400 205.600 C 154.400 206.260,154.220 206.800,154.000 206.800 C 153.780 206.800,153.600 207.340,153.600 208.000 C 153.600 208.660,153.420 209.200,153.200 209.200 C 152.980 209.200,152.800 209.639,152.800 210.176 C 152.800 210.713,152.620 211.264,152.400 211.400 C 152.180 211.536,152.000 212.087,152.000 212.624 C 152.000 213.161,151.820 213.600,151.600 213.600 C 151.380 213.600,151.200 213.949,151.200 214.376 C 151.200 214.803,151.020 215.264,150.800 215.400 C 150.580 215.536,150.400 216.166,150.400 216.800 C 150.400 217.434,150.256 218.042,150.079 218.151 C 149.903 218.260,149.510 219.261,149.207 220.375 C 148.904 221.489,148.508 222.400,148.328 222.400 C 148.147 222.400,148.000 222.852,148.000 223.405 C 148.000 223.958,147.820 224.768,147.600 225.205 C 147.380 225.642,147.020 226.358,146.800 226.795 C 146.580 227.232,146.400 227.864,146.400 228.200 C 146.400 228.536,146.242 229.123,146.049 229.505 C 145.480 230.633,144.800 232.996,144.800 233.848 C 144.800 234.284,144.636 234.811,144.435 235.020 C 143.440 236.057,143.050 253.387,143.937 257.200 C 144.219 258.410,144.548 259.985,144.668 260.700 C 144.789 261.415,145.048 262.000,145.244 262.000 C 145.440 262.000,145.600 262.439,145.600 262.976 C 145.600 263.513,145.780 264.064,146.000 264.200 C 146.220 264.336,146.400 264.797,146.400 265.224 C 146.400 265.651,146.580 266.000,146.800 266.000 C 147.020 266.000,147.200 266.360,147.200 266.800 C 147.200 267.240,147.380 267.600,147.600 267.600 C 147.820 267.600,148.000 267.960,148.000 268.400 C 148.000 268.840,148.180 269.200,148.400 269.200 C 148.620 269.200,148.800 269.560,148.800 270.000 C 148.800 270.440,148.980 270.800,149.200 270.800 C 149.420 270.800,149.600 271.070,149.600 271.400 C 149.600 271.730,149.780 272.000,150.000 272.000 C 150.220 272.000,150.400 272.178,150.400 272.395 C 150.400 272.808,151.042 273.652,152.900 275.682 C 153.505 276.344,154.000 277.043,154.000 277.236 C 154.000 278.180,162.367 285.736,164.572 286.783 C 165.247 287.104,166.091 287.689,166.447 288.083 C 166.803 288.477,167.388 288.800,167.747 288.800 C 168.106 288.800,168.400 288.980,168.400 289.200 C 168.400 289.420,168.760 289.600,169.200 289.600 C 169.640 289.600,170.000 289.780,170.000 290.000 C 170.000 290.220,170.360 290.400,170.800 290.400 C 171.240 290.400,171.600 290.564,171.600 290.765 C 171.600 290.966,172.320 291.251,173.200 291.400 C 174.080 291.549,174.800 291.834,174.800 292.035 C 174.800 292.236,175.072 292.400,175.405 292.400 C 175.993 292.400,176.418 292.567,178.295 293.538 C 178.787 293.792,179.552 294.000,179.995 294.000 C 180.438 294.000,180.800 294.180,180.800 294.400 C 180.800 294.620,181.329 294.800,181.976 294.800 C 182.623 294.800,183.264 294.980,183.400 295.200 C 183.536 295.420,184.447 295.600,185.424 295.600 C 186.401 295.600,187.200 295.780,187.200 296.000 C 187.200 296.220,188.100 296.400,189.200 296.400 C 190.300 296.400,191.200 296.580,191.200 296.800 C 191.200 297.035,192.600 297.200,194.600 297.200 C 196.600 297.200,198.000 297.365,198.000 297.600 C 198.000 297.849,200.267 298.000,204.000 298.000 C 207.733 298.000,210.000 297.849,210.000 297.600 C 210.000 297.361,211.533 297.200,213.800 297.200 C 216.067 297.200,217.600 297.039,217.600 296.800 C 217.600 296.575,218.725 296.400,220.176 296.400 C 221.593 296.400,222.864 296.220,223.000 296.000 C 223.136 295.780,223.867 295.600,224.624 295.600 C 225.381 295.600,226.000 295.420,226.000 295.200 C 226.000 294.980,226.720 294.800,227.600 294.800 C 228.480 294.800,229.200 294.620,229.200 294.400 C 229.200 294.180,229.740 294.000,230.400 294.000 C 231.060 294.000,231.600 293.820,231.600 293.600 C 231.600 293.380,232.140 293.200,232.800 293.200 C 233.460 293.200,234.000 293.020,234.000 292.800 C 234.000 292.580,234.540 292.400,235.200 292.400 C 235.860 292.400,236.400 292.220,236.400 292.000 C 236.400 291.780,236.849 291.600,237.397 291.600 C 238.537 291.600,241.600 290.365,241.600 289.906 C 241.600 289.738,242.039 289.600,242.576 289.600 C 243.113 289.600,243.664 289.420,243.800 289.200 C 243.936 288.980,244.397 288.800,244.824 288.800 C 245.251 288.800,245.600 288.642,245.600 288.449 C 245.600 288.255,246.140 287.873,246.800 287.600 C 247.460 287.327,248.000 286.945,248.000 286.751 C 248.000 286.558,248.360 286.400,248.800 286.400 C 249.240 286.400,249.600 286.220,249.600 286.000 C 249.600 285.780,249.920 285.600,250.312 285.600 C 250.703 285.600,251.283 285.240,251.600 284.800 C 251.917 284.360,252.407 284.000,252.688 284.000 C 252.970 284.000,253.200 283.820,253.200 283.600 C 253.200 283.380,253.470 283.200,253.800 283.200 C 254.130 283.200,254.400 283.020,254.400 282.800 C 254.400 282.580,254.646 282.400,254.947 282.400 C 255.248 282.400,256.328 281.566,257.347 280.547 C 258.366 279.528,259.200 278.812,259.200 278.956 C 259.200 279.100,260.188 278.268,261.396 277.109 C 262.603 275.949,264.178 274.443,264.896 273.763 C 267.350 271.435,270.000 268.458,270.000 268.029 C 270.000 267.793,270.138 267.600,270.306 267.600 C 270.564 267.600,272.248 265.318,273.800 262.866 C 274.020 262.518,274.425 261.988,274.700 261.688 C 274.975 261.388,275.200 260.796,275.200 260.371 C 275.200 259.947,275.380 259.600,275.600 259.600 C 275.820 259.600,276.000 259.330,276.000 259.000 C 276.000 258.670,276.180 258.400,276.400 258.400 C 276.620 258.400,276.800 258.130,276.800 257.800 C 276.800 257.470,276.980 257.200,277.200 257.200 C 277.420 257.200,277.600 256.855,277.600 256.433 C 277.600 256.012,277.735 255.607,277.900 255.533 C 278.370 255.325,280.002 251.879,280.001 251.100 C 280.000 250.715,280.180 250.400,280.400 250.400 C 280.620 250.400,280.800 250.040,280.800 249.600 C 280.800 249.160,280.980 248.800,281.200 248.800 C 281.420 248.800,281.600 248.260,281.600 247.600 C 281.600 246.940,281.780 246.400,282.000 246.400 C 282.220 246.400,282.400 245.939,282.400 245.376 C 282.400 244.796,282.573 244.460,282.800 244.600 C 283.033 244.744,283.200 244.337,283.200 243.624 C 283.200 242.951,283.380 242.400,283.600 242.400 C 283.844 242.400,284.000 240.541,284.000 237.624 C 284.000 234.871,283.831 232.742,283.600 232.600 C 283.380 232.464,283.200 232.043,283.200 231.665 C 283.200 231.286,282.840 230.717,282.400 230.400 C 281.960 230.083,281.600 229.633,281.600 229.400 C 281.600 229.167,281.218 228.712,280.751 228.388 C 280.284 228.065,279.667 227.575,279.380 227.300 C 279.092 227.025,278.698 226.800,278.504 226.800 C 278.309 226.800,277.351 226.412,276.375 225.938 C 273.843 224.710,267.149 224.709,264.900 225.937 C 264.405 226.207,264.000 226.319,264.000 226.186 C 264.000 226.052,263.735 226.181,263.411 226.471 C 263.087 226.762,262.114 227.540,261.250 228.200 C 259.551 229.497,258.400 231.441,258.400 233.014 C 258.400 233.556,258.220 234.000,258.000 234.000 C 257.780 234.000,257.600 234.360,257.600 234.800 C 257.600 235.240,257.420 235.600,257.200 235.600 C 256.980 235.600,256.800 236.140,256.800 236.800 C 256.800 237.460,256.620 238.000,256.400 238.000 C 256.180 238.000,256.000 238.360,256.000 238.800 C 256.000 239.240,255.820 239.600,255.600 239.600 C 255.380 239.600,255.200 239.960,255.200 240.400 C 255.200 240.840,255.020 241.200,254.800 241.200 C 254.580 241.200,254.400 241.560,254.400 242.000 C 254.400 242.440,254.220 242.800,254.000 242.800 C 253.780 242.800,253.600 243.070,253.600 243.400 C 253.600 243.730,253.441 244.000,253.247 244.000 C 253.052 244.000,252.793 244.315,252.671 244.700 C 252.333 245.767,251.124 247.614,249.900 248.933 C 249.295 249.585,248.800 250.276,248.800 250.468 C 248.800 250.660,247.855 251.774,246.700 252.942 C 245.545 254.111,243.768 255.997,242.750 257.133 C 241.733 258.270,240.608 259.200,240.250 259.200 C 239.893 259.200,239.600 259.410,239.600 259.667 C 239.600 259.923,239.491 260.024,239.358 259.891 C 239.224 259.758,238.690 260.074,238.170 260.593 C 237.651 261.113,236.860 261.654,236.413 261.796 C 235.966 261.938,235.600 262.222,235.600 262.427 C 235.600 262.632,235.280 262.800,234.888 262.800 C 234.497 262.800,233.917 263.160,233.600 263.600 C 233.283 264.040,232.703 264.400,232.312 264.400 C 231.920 264.400,231.600 264.580,231.600 264.800 C 231.600 265.020,231.150 265.200,230.600 265.200 C 230.050 265.200,229.600 265.380,229.600 265.600 C 229.600 265.820,229.240 266.000,228.800 266.000 C 228.360 266.000,228.000 266.180,228.000 266.400 C 228.000 266.620,227.640 266.800,227.200 266.800 C 226.760 266.800,226.400 266.980,226.400 267.200 C 226.400 267.420,225.860 267.600,225.200 267.600 C 224.540 267.600,224.000 267.780,224.000 268.000 C 224.000 268.220,223.460 268.400,222.800 268.400 C 222.140 268.400,221.600 268.580,221.600 268.800 C 221.600 269.020,220.700 269.200,219.600 269.200 C 218.500 269.200,217.600 269.380,217.600 269.600 C 217.600 269.839,216.067 270.000,213.800 270.000 C 211.533 270.000,210.000 270.161,210.000 270.400 C 210.000 270.620,209.471 270.800,208.824 270.800 C 208.177 270.800,207.536 270.620,207.400 270.400 C 207.264 270.180,206.004 270.000,204.600 270.000 C 203.196 270.000,201.936 269.820,201.800 269.600 C 201.664 269.380,200.933 269.200,200.176 269.200 C 199.419 269.200,198.800 269.053,198.800 268.872 C 198.800 268.692,197.900 268.300,196.800 268.000 C 195.700 267.700,194.800 267.308,194.800 267.128 C 194.800 266.947,194.260 266.800,193.600 266.800 C 192.940 266.800,192.400 266.642,192.400 266.449 C 192.400 266.255,191.860 265.873,191.200 265.600 C 190.540 265.327,190.000 264.945,190.000 264.751 C 190.000 264.558,189.730 264.400,189.400 264.400 C 189.070 264.400,188.800 264.220,188.800 264.000 C 188.800 263.780,188.530 263.600,188.200 263.600 C 187.870 263.600,187.600 263.420,187.600 263.200 C 187.600 262.980,187.389 262.800,187.131 262.800 C 186.874 262.800,185.914 262.035,185.000 261.100 C 184.085 260.165,182.946 259.135,182.468 258.812 C 181.991 258.488,181.600 257.943,181.600 257.600 C 181.600 257.257,181.240 256.717,180.800 256.400 C 180.360 256.083,180.000 255.503,180.000 255.112 C 180.000 254.720,179.820 254.400,179.600 254.400 C 179.380 254.400,179.200 253.860,179.200 253.200 C 179.200 252.540,179.020 252.000,178.800 252.000 C 178.552 252.000,178.400 249.867,178.400 246.400 C 178.400 242.933,178.552 240.800,178.800 240.800 C 179.020 240.800,179.200 240.170,179.200 239.400 C 179.200 238.630,179.380 238.000,179.600 238.000 C 179.820 238.000,180.000 237.640,180.000 237.200 C 180.000 236.760,180.180 236.400,180.400 236.400 C 180.620 236.400,180.800 235.860,180.800 235.200 C 180.800 234.540,180.980 234.000,181.200 234.000 C 181.420 234.000,181.600 233.460,181.600 232.800 C 181.600 232.140,181.780 231.600,182.000 231.600 C 182.220 231.600,182.400 231.060,182.400 230.400 C 182.400 229.740,182.547 229.200,182.728 229.200 C 182.908 229.200,183.300 228.300,183.600 227.200 C 183.900 226.100,184.292 225.200,184.472 225.200 C 184.653 225.200,184.800 224.761,184.800 224.224 C 184.800 223.687,184.980 223.136,185.200 223.000 C 185.420 222.864,185.600 222.324,185.600 221.800 C 185.600 221.276,185.780 220.736,186.000 220.600 C 186.220 220.464,186.400 219.913,186.400 219.376 C 186.400 218.839,186.580 218.400,186.800 218.400 C 187.020 218.400,187.200 217.961,187.200 217.424 C 187.200 216.887,187.380 216.336,187.600 216.200 C 187.820 216.064,188.000 215.603,188.000 215.176 C 188.000 214.749,188.180 214.400,188.400 214.400 C 188.620 214.400,188.800 213.871,188.800 213.224 C 188.800 212.577,188.980 211.936,189.200 211.800 C 189.420 211.664,189.600 211.143,189.600 210.643 C 189.600 210.143,189.719 209.614,189.865 209.468 C 190.274 209.059,191.600 205.121,191.600 204.315 C 191.600 203.922,191.780 203.600,192.000 203.600 C 192.220 203.600,192.400 203.060,192.400 202.400 C 192.400 201.740,192.580 201.200,192.800 201.200 C 193.020 201.200,193.200 200.660,193.200 200.000 C 193.200 199.340,193.380 198.800,193.600 198.800 C 193.820 198.800,194.000 198.440,194.000 198.000 C 194.000 197.560,194.180 197.200,194.400 197.200 C 194.620 197.200,194.800 196.660,194.800 196.000 C 194.800 195.340,194.980 194.800,195.200 194.800 C 195.420 194.800,195.600 194.260,195.600 193.600 C 195.600 192.940,195.780 192.400,196.000 192.400 C 196.220 192.400,196.400 191.950,196.400 191.400 C 196.400 190.850,196.580 190.400,196.800 190.400 C 197.020 190.400,197.200 189.950,197.200 189.400 C 197.200 188.850,197.380 188.400,197.600 188.400 C 197.820 188.400,198.000 187.849,198.000 187.176 C 198.000 186.463,198.167 186.056,198.400 186.200 C 198.633 186.344,198.800 185.937,198.800 185.224 C 198.800 184.551,198.980 184.000,199.200 184.000 C 199.420 184.000,199.600 183.460,199.600 182.800 C 199.600 182.140,199.780 181.600,200.000 181.600 C 200.220 181.600,200.400 181.060,200.400 180.400 C 200.400 179.740,200.580 179.200,200.800 179.200 C 201.020 179.200,201.200 178.660,201.200 178.000 C 201.200 177.340,201.380 176.800,201.600 176.800 C 201.820 176.800,202.000 176.528,202.000 176.195 C 202.000 175.862,202.208 175.187,202.462 174.695 C 203.458 172.769,203.600 172.383,203.600 171.605 C 203.600 171.162,203.780 170.800,204.000 170.800 C 204.220 170.800,204.400 170.260,204.400 169.600 C 204.400 168.940,204.580 168.400,204.800 168.400 C 205.020 168.400,205.200 168.038,205.200 167.595 C 205.200 167.152,205.380 166.432,205.600 165.995 C 205.820 165.558,206.180 164.842,206.400 164.405 C 206.620 163.968,206.800 163.248,206.800 162.805 C 206.800 162.362,206.980 162.000,207.200 162.000 C 207.420 162.000,207.600 161.790,207.600 161.534 C 207.600 160.788,208.923 158.000,209.277 158.000 C 209.455 158.000,209.600 157.817,209.600 157.593 C 209.600 157.061,214.661 152.000,215.193 152.000 C 215.417 152.000,215.600 151.820,215.600 151.600 C 215.600 151.380,215.870 151.200,216.200 151.200 C 216.530 151.200,216.800 151.020,216.800 150.800 C 216.800 150.580,217.340 150.400,218.000 150.400 C 218.660 150.400,219.200 150.220,219.200 150.000 C 219.200 149.780,220.085 149.600,221.167 149.600 C 222.349 149.600,223.226 149.401,223.367 149.100 C 223.553 148.700,223.647 148.700,223.833 149.100 C 223.962 149.375,224.771 149.600,225.633 149.600 C 226.495 149.600,227.200 149.780,227.200 150.000 C 227.200 150.220,227.388 150.400,227.618 150.400 C 228.260 150.400,230.000 152.286,230.000 152.982 C 230.000 153.322,230.180 153.600,230.400 153.600 C 230.641 153.600,230.800 155.259,230.800 157.776 C 230.800 160.129,230.625 162.061,230.400 162.200 C 230.180 162.336,230.000 163.056,230.000 163.800 C 230.000 164.544,229.820 165.264,229.600 165.400 C 229.380 165.536,229.200 166.087,229.200 166.624 C 229.200 167.161,229.020 167.600,228.800 167.600 C 228.580 167.600,228.400 168.129,228.400 168.776 C 228.400 169.423,228.215 170.067,227.989 170.207 C 227.500 170.509,227.567 175.200,228.060 175.200 C 228.247 175.200,228.400 175.740,228.400 176.400 C 228.400 177.060,228.580 177.600,228.800 177.600 C 229.020 177.600,229.200 177.960,229.200 178.400 C 229.200 178.840,229.380 179.200,229.600 179.200 C 229.820 179.200,230.000 179.475,230.000 179.811 C 230.000 180.604,233.396 184.000,234.189 184.000 C 234.525 184.000,234.800 184.180,234.800 184.400 C 234.800 184.620,235.160 184.800,235.600 184.800 C 236.040 184.800,236.400 184.980,236.400 185.200 C 236.400 185.420,236.760 185.600,237.200 185.600 C 237.640 185.600,238.000 185.780,238.000 186.000 C 238.000 186.220,238.709 186.400,239.576 186.400 C 240.443 186.400,241.264 186.580,241.400 186.800 C 241.536 187.020,242.717 187.200,244.024 187.200 C 245.341 187.200,246.400 187.022,246.400 186.800 C 246.400 186.580,247.120 186.400,248.000 186.400 C 248.880 186.400,249.600 186.220,249.600 186.000 C 249.600 185.780,249.960 185.600,250.400 185.600 C 250.840 185.600,251.200 185.420,251.200 185.200 C 251.200 184.980,251.560 184.800,252.000 184.800 C 252.440 184.800,252.800 184.620,252.800 184.400 C 252.800 184.180,253.083 184.000,253.429 184.000 C 254.213 184.000,258.777 179.223,258.790 178.388 C 258.796 178.052,259.160 177.517,259.600 177.200 C 260.040 176.883,260.400 176.303,260.400 175.912 C 260.400 175.520,260.535 175.199,260.700 175.197 C 261.106 175.193,262.000 173.214,262.000 172.320 C 262.000 171.924,262.180 171.600,262.400 171.600 C 262.620 171.600,262.800 171.150,262.800 170.600 C 262.800 170.050,262.980 169.600,263.200 169.600 C 263.420 169.600,263.600 168.981,263.600 168.224 C 263.600 167.467,263.780 166.736,264.000 166.600 C 264.220 166.464,264.400 165.553,264.400 164.576 C 264.400 163.599,264.580 162.800,264.800 162.800 C 265.029 162.800,265.200 161.600,265.200 160.000 C 265.200 158.460,265.357 157.200,265.549 157.200 C 265.741 157.200,265.930 155.490,265.969 153.400 C 266.014 150.968,265.889 149.600,265.620 149.600 C 265.367 149.600,265.200 148.496,265.200 146.824 C 265.200 145.297,265.020 143.936,264.800 143.800 C 264.580 143.664,264.400 143.023,264.400 142.376 C 264.400 141.729,264.220 141.200,264.000 141.200 C 263.780 141.200,263.600 140.660,263.600 140.000 C 263.600 139.340,263.420 138.800,263.200 138.800 C 262.980 138.800,262.800 138.361,262.800 137.824 C 262.800 137.287,262.620 136.736,262.400 136.600 C 262.180 136.464,262.000 136.043,262.000 135.665 C 262.000 135.286,261.640 134.717,261.200 134.400 C 260.760 134.083,260.400 133.569,260.400 133.259 C 260.400 132.948,260.066 132.403,259.657 132.047 C 259.249 131.691,258.790 131.006,258.638 130.524 C 258.352 129.618,253.381 124.800,252.731 124.800 C 252.529 124.800,251.928 124.364,251.395 123.831 C 250.862 123.298,250.060 122.746,249.613 122.604 C 249.166 122.462,248.800 122.178,248.800 121.973 C 248.800 121.768,248.440 121.600,248.000 121.600 C 247.560 121.600,247.200 121.420,247.200 121.200 C 247.200 120.980,246.840 120.800,246.400 120.800 C 245.960 120.800,245.600 120.620,245.600 120.400 C 245.600 120.180,245.240 120.000,244.800 120.000 C 244.360 120.000,244.000 119.820,244.000 119.600 C 244.000 119.380,243.640 119.200,243.200 119.200 C 242.760 119.200,242.400 119.020,242.400 118.800 C 242.400 118.580,241.961 118.400,241.424 118.400 C 240.887 118.400,240.336 118.220,240.200 118.000 C 240.064 117.780,239.333 117.600,238.576 117.600 C 237.819 117.600,237.200 117.420,237.200 117.200 C 237.200 116.980,236.300 116.800,235.200 116.800 C 234.100 116.800,233.200 116.620,233.200 116.400 C 233.200 116.145,229.800 116.000,223.800 116.000 C 217.800 116.000,214.400 116.145,214.400 116.400 " stroke="none" fill="#3bb4fc" fill-rule="evenodd"></path><path id="path2" d="" stroke="none" fill="#60d8f0" fill-rule="evenodd"></path><path id="path3" d="" stroke="none" fill="#60d8f0" fill-rule="evenodd"></path><path id="path4" d="" stroke="none" fill="#60d8f0" fill-rule="evenodd"></path></g></svg>